<svg xmlns="http://www.w3.org/2000/svg" viewBox="90 285 430 430">
<style type="text/css">
	.st0{fill:#4D9078;}
	.st1{fill:#197BBD;}
</style>
<path class="st0" d="M258.9,691.2c-2.3,5.9-2.7,6.1-8.7,4.7c-0.4-0.1-0.8-0.2-1.2-0.3c-6.2-1.7-8.8-1.5-7.3-9.8
	c1.5-8.2-2.6-15.4-10.7-18.6c-7.4-2.9-16.2,0.1-21.3,7.3c-3,4.2-3.8,4.4-8.3,1.8c-1.8-1-3.6-2.1-5.4-3.1c-3-1.8-3.4-3-1.8-6.1
	c2.9-5.7,3.9-11.6,1.1-17.5c-4.8-9.8-18-12.5-26.5-5.5c-5.5,4.5-5.5,4.5-10.6-0.6c-0.4-0.4-0.8-0.8-1.3-1.3
	c-4.7-4.7-4.7-4.7-0.6-9.7c6.7-8.3,6.3-19-1.5-25.3c-5.7-4.6-12.2-5-18.8-2c-4.6,2-5.4,1.8-7.9-2.5c-1.1-1.9-2.2-3.8-3.1-5.8
	c-1.1-2.3-0.8-4,1.6-5.5c3.1-1.9,5.5-4.6,7.3-7.7c3.6-6.4,3.7-12.8-0.7-18.8c-4.2-5.6-10.2-7-16.8-6c-5.8,0.9-6.4,0.6-7.6-5.2
	c-0.3-1.2-0.5-2.3-0.7-3.5c-1.2-5.7-0.9-6.2,4.6-8.3c11.5-4.4,15.8-16.5,9.2-26.4c-2.7-4.1-7-5.6-11.7-6.2c-5.9-0.7-6.8-1.7-6.6-7.8
	c0-0.5,0.1-1,0.1-1.5c0.6-6.8,0.6-6.9,7.2-7.9c14.1-2.2,18.9-16.9,14-25.9c-2.2-3.9-5.6-6.4-9.7-7.9c-4.5-1.6-5.1-2.8-3.8-7.4
	c0.5-1.7,1-3.4,1.5-5.2c1.1-3.9,2.3-4.6,6.3-3.8c9.2,1.8,17.5-2.8,20.9-11.4c2.8-7.2,0.3-15.1-6.1-19.5c-4.3-2.9-4.6-4.2-2-8.8
	c0.9-1.6,1.9-3.3,2.8-4.9c1.8-2.9,3.2-3.3,6.2-1.8c4.6,2.3,9.3,2.8,14.2,1.5c12.5-3.3,17-19,8.1-28.4c-2.9-3-2.9-5,0-7.9
	c1.5-1.5,2.9-3,4.5-4.4c2.8-2.7,4.3-2.7,7.1-0.1c4,3.7,8.7,5.5,14.2,4.9c11.8-1.3,19.2-14.3,13.9-25c-2.4-4.8-1.9-6.5,2.8-9
	c8.6-4.6,7.9-5.2,13.6,2.3c6.8,8.9,22.4,6,27.7-4.8c2-4,2.2-8.2,1.5-12.5c-0.6-3.5-0.1-4.3,3.4-5.5c2.2-0.7,4.4-1.3,6.6-1.9
	c3.8-1.1,5-0.6,6.3,3.3c1.5,4.4,3.9,8.1,8.1,10.2c11.4,5.9,23.9-1.2,25.7-14.5c0.8-5.9,1.2-6.3,7-6.5c0.6,0,1.2-0.1,1.8-0.1
	c5.6,0,8.2-0.6,8.6,6.9c0.5,7.4,6.2,13,12.9,14.3c6.8,1.3,14.3-2.2,18.1-8.4c1.1-1.9,2-3.9,2.6-6c0.7-2,2.1-3,4.1-2.6
	c3.4,0.6,6.8,1.4,10.2,2.3c2.4,0.7,2.6,2.7,2.2,4.9c-0.8,4.3-0.6,8.5,1.3,12.6c4.8,10.6,18.3,11.2,25.7,5.2c2.1-1.7,3.9-3.6,5.3-6
	c1.4-2.4,3.3-2.9,5.8-1.4c2,1.2,4.2,2.3,6.3,3.4c3.6,2,4,3.3,2.1,6.9c-3.8,7.3-2.9,14.8,2.1,20.5c6.5,7.3,17.2,6.1,23,1.4
	c1-0.8,2-1.6,3-2.5c2.6-2.2,4.1-2.3,6.7,0.1c1.8,1.7,3.6,3.5,5.3,5.3c2.2,2.3,2.2,3.7,0,6.1c-4.3,4.8-6.5,10.3-5.4,16.7
	c1.9,11.6,14.1,17.4,25.1,11.6c3.9-2,5.8-2,8.3,2.6c0.9,1.7,1.8,3.3,2.7,5c2,3.7,1.7,4.7-1.6,7.2c-6,4.4-9.4,10.2-8.5,17.9
	c1.2,9.4,10.5,16.2,19.9,14.6c1.2-0.2,2.3-0.5,3.5-0.8c2-0.4,3.3,0.3,4,2.2c1.2,3.4,2.2,6.8,2.6,10.4c0.4,3-1.4,4.1-4.1,4.9
	c-9.6,2.7-15,12-12.8,21.6c1.7,7.2,8.5,12.4,16.8,12.9c4.3,0.2,5,0.9,5,5.2c0,2.4,0.1,4.8,0,7.2c-0.2,3.7-1.4,4.8-5.1,5.2
	c-10,1-17.1,8.1-17.7,17.4c-0.4,5.6,2.9,13.7,10.2,16.3c8.9,3.2,7,4.9,5.2,11c-2.1,7-2,6.9-9.2,6.4c-7.6-0.5-13.9,2.2-17.8,8.7
	c-3.6,5.9-3.6,12.3,0.3,18.4c1.7,2.7,4.4,4.3,6.8,6.2c2.4,1.9,2.8,3.6,1.3,6.2c-1.2,2.1-2.5,4.1-3.7,6.1c-2.1,3.5-3.1,3.8-6.8,2.2
	c-5.1-2.3-10.4-2.8-15.7-0.5c-11.5,5-14.4,19.5-5.9,29c2.6,3,2.6,4.5-0.2,7.3c-1.7,1.8-3.4,3.6-5.3,5.3c-2.2,2-4.1,1.9-6.3-0.1
	c-7.5-6.9-17.5-7.5-25.2-0.9c-5.8,4.9-7.7,13.3-4.1,21.3c1.9,4.2,1.6,5.4-2.4,7.7c-1.6,0.9-3.3,1.9-4.9,2.8c-3.5,2-4.9,1.6-7.2-1.6
	c-2.8-4-6.3-7.1-11.3-8.2c-11.9-2.6-23.4,7.4-21.6,19.5c1.2,8.3-0.8,7.5-6.4,9.4c-0.5,0.2-1,0.3-1.4,0.4c-6.5,1.6-6.7,1.5-9.3-4.7
	c-3-7-9-11.2-16.2-11.1c-7.7,0.1-13.2,3.9-16.5,10.8c-0.9,1.8-1.4,3.7-1.7,5.7c-0.9,5.7-1.3,6.1-7.3,6.2c-2,0-4,0-6,0
	c-2.5,0-3.9-1.2-3.9-3.8c0-2.3-0.7-4.5-1.4-6.7c-2.4-6.9-7.3-10.9-14.5-11.6c-7.5-0.7-13,2.8-17,9
	C259.7,689.4,259.4,690.2,258.9,691.2 M265.5,377.5c-19.4,6.8-36.1,17.9-50.6,32.4c-8,8-14.8,16.9-20.4,26.7
	c-18.1,31.9-23,65.6-13.8,101.1c7,27,22.1,48.7,43.9,65.8c13.7,10.8,29.4,18,46.4,21.7c45.7,9.9,86.3-0.9,121.2-31.8
	c13.9-12.3,24.4-27.4,31.7-44.7c11.5-27.2,14.5-55.2,7.7-84.1c-7-29.8-23-53.5-47.5-71.5c-17.2-12.7-36.7-19.8-57.8-22.3
	C305.6,368.2,285.5,370.5,265.5,377.5 M255.7,632.9c-10.9-3.9-21.3-8.8-31-15.2c-2.2-1.4-3.7-1.3-5.5,0.6c-2.9,3-5.8,6-8.9,8.9
	c-1.9,1.8-2.1,2.8,0.4,4.5c18.7,12.5,39.1,20.8,61.2,24.8c27.4,4.9,54.4,2.4,80.8-6.1c15.9-5.1,30.5-13,44.4-22.3
	c2-1.3,2-2.3,0.4-3.9c-2.6-2.5-5.1-5.1-7.6-7.6c-3.4-3.4-3.5-3.5-7.5-0.8c-10.4,6.9-21.4,12.6-33.3,16.5
	C318.2,642.6,287.2,643.3,255.7,632.9 M289.5,359.8c25.2-4.2,49.6-1,73.3,8.2c8.3,3.2,16,7.5,23.5,12.3c2.3,1.5,4.1,1.4,6-0.6
	c2.8-3.1,5.9-6,8.9-8.9c1.6-1.5,1.7-2.6-0.4-3.9c-5.7-3.7-11.5-7.2-17.5-10.2c-27.3-14-56.4-19.2-86.9-16.3
	c-30,2.9-57.2,13.4-81.7,31c-1.9,1.4-1.8,2.3-0.3,3.7c2.8,2.8,5.7,5.6,8.4,8.5c1.9,2,3.4,1.8,5.7,0.3
	C246.9,371.4,267.1,363.2,289.5,359.8 M167.6,533.8c-4.1-19-4.1-37.9-0.4-56.9c3.9-20.1,11.9-38.5,23.5-55.4
	c1.2-1.7,1.2-3.3-0.4-4.8c-1.8-1.7-3.5-3.5-5.3-5.3c-5.5-5.4-5.5-5.4-9.8,0.7c-18.2,26.4-27.8,55.7-29,87.5
	c-1.3,34.4,7.9,65.9,27.1,94.6c1.3,1.9,2.3,2.2,3.9,0.5c2.9-3,5.8-6,8.9-8.8c2.1-2,2.4-3.9,0.7-6.3
	C177.5,565.8,171.3,550.5,167.6,533.8 M457,443c-4.4-13.7-11-26.4-18.8-38.5c-1.5-2.4-2.7-2.6-4.5-0.6c-2.8,2.9-5.7,5.9-8.7,8.7
	c-2.1,2-2,3.7-0.5,6c6.9,10.7,12.4,22.1,16.2,34.4c9.1,30,8.1,59.7-1.8,89.2c-4.1,12.4-9.8,24.1-17.6,34.8c-1.5,2-1.5,3.6,0.5,5.4
	c3,2.8,5.8,5.7,8.7,8.6c1.5,1.5,2.4,1.8,3.9-0.3c6-8.6,11.3-17.5,15.6-27.1C467.3,524.4,470.2,484.4,457,443 M191.4,599.8
	c-1,0.4-2,0.8-3,1.4c-6.5,4.1-6.7,14.5-0.3,18.1c4.6,2.6,10,2,13.5-1.3c3.6-3.5,4.6-8.7,2.4-13.1
	C201.9,600.6,197.5,598.7,191.4,599.8 M426.8,390.6c1.7-7.2-2.3-13-9.4-13.4c-5.6-0.3-10.2,3.2-11.4,8.8c-1.1,5.4,1.6,10.3,6.7,12
	C418.3,399.9,423.9,397.1,426.8,390.6 M424.5,606.5c-0.5-4.8-3-8-7.7-9.5c-4.1-1.3-9.4,0.6-11.7,4.3c-3,4.8-2.8,9.6,0.7,13.1
	c3.2,3.3,7.1,4.3,11.4,2.7C421.9,615.4,424.2,611.9,424.5,606.5 M205.7,398.9c0.5-0.7,1.1-1.4,1.5-2.2c2.5-4.3,2-9.2-1.4-12.6
	c-3.3-3.2-8.7-3.9-12.7-1.5c-4.2,2.5-6.5,8-5.2,12.3C190.3,402.5,198.6,404.5,205.7,398.9z"/>
<g>
	<path class="st1" d="M370.3,485.2c0.9,12,0.9,23.7-1.3,35.4c-4.3,22.5-14,42.4-29,59.7c-3.3,3.8-6.9,4.9-10.8,3
		c-3.7-1.8-5.6-5.7-4.9-9.7c0.3-1.4,1-2.6,1.9-3.6c15.1-17.6,23.9-38,26.2-61c3.1-29.9-4.7-56.8-24.1-80c-2.9-3.5-2.9-8.1,0.2-11
		c3.5-3.4,8.7-3.6,12,0c11,11.9,19.1,25.6,24.1,41.2C367.4,467.5,369.6,476,370.3,485.2z"/>
	<path class="st1" d="M325.1,537.2c-4.3,9.3-9.4,17.8-16.4,25c-3.3,3.4-7.6,3.3-11.2,0.1c-3.6-3.3-4.3-7.9-1.3-11.4
		c10.8-12.9,16.8-27.8,18.8-44.4c2.3-19.7-2.2-37.7-13.4-54c-0.7-1.1-1.6-2-2.4-3c-3.2-3.9-3.1-8.6,0.2-11.5
		c3.7-3.3,8.8-3.2,12.3,0.5c4.9,5.3,8.9,11.2,12.2,17.6c6.5,12.9,9.6,26.8,9.7,41.2C333.5,511.1,330.9,524.4,325.1,537.2z"/>
	<path class="st1" d="M276.8,487.8c-1.5-7.5-4.3-14.1-8.7-20c-2.9-3.8-2.6-8.3,0.6-11c3.5-3,8.6-3,11.9,0.2
		c7.5,7.4,11.6,16.6,13.5,26.7c3.6,18.6,0.3,36-10,51.9c-1.6,2.5-3.5,4.8-5.5,7c-3,3.4-7.4,3.6-10.9,0.7c-3.9-3.3-4.9-8.2-2-11.6
		c6.1-7.2,9.4-15.6,11.1-24.8C277.9,500.7,278.1,494.4,276.8,487.8z"/>
	<path class="st1" d="M257.2,502.6c-1.1,8.2-4.2,15.1-9.3,21.2c-3,3.6-8.2,4.2-11.7,1.5c-3.9-2.9-4.5-7.8-1.8-11.9
		c6.2-9.1,7.2-18.5,2.1-28.4c-2.3-4.4-1.2-8.8,2.6-11.2c3.7-2.4,8.7-1.5,11.5,2.2c4.2,5.3,6.1,11.5,6.6,18.2
		C257.4,496.9,257.2,499.6,257.2,502.6z"/>
</g>
</svg>
